<svg xmlns="http://www.w3.org/2000/svg" xmlns:xlink="http://www.w3.org/1999/xlink" contentStyleType="text/css" data-diagram-type="DESCRIPTION" height="370px" preserveAspectRatio="none" style="width:3766px;height:370px;background:#1B1B1B;" version="1.1" viewBox="0 0 3766 370" width="3766px" zoomAndPan="magnify"><defs/><g><rect fill="#1B1B1B" height="370" style="stroke:none;stroke-width:1;" width="3766" x="0" y="0"/><!--cluster Syst?me de Gestion Communale--><g class="cluster" data-entity="Syst&#232;me de Gestion Communale" data-source-line="7" data-uid="ent0005" id="cluster_Syst&#232;me de Gestion Communale"><rect fill="none" height="234.65" rx="2.5" ry="2.5" style="stroke:#E7E7E7;stroke-width:1;" width="3753" x="7" y="129.79"/><text fill="#FFFFFF" font-family="sans-serif" font-size="14" font-weight="bold" lengthAdjust="spacing" textLength="255.0898" x="1755.9551" y="144.7851">Syst&#232;me de Gestion Communale</text></g><!--entity UC1--><g class="entity" data-entity="UC1" data-source-line="9" data-uid="ent0006" id="entity_UC1"><ellipse cx="417.0032" cy="194.3786" fill="#313139" rx="86.6932" ry="19.7386" style="stroke:#E7E7E7;stroke-width:0.5;"/><text fill="#FFFFFF" font-family="sans-serif" font-size="14" lengthAdjust="spacing" textLength="146.2139" x="343.8963" y="199.0271">G&#233;rer les utilisateurs</text></g><!--entity UC1_1--><g class="entity" data-entity="UC1_1" data-source-line="10" data-uid="ent0007" id="entity_UC1_1"><ellipse cx="561.0039" cy="324.6988" fill="#313139" rx="99.6939" ry="22.3388" style="stroke:#E7E7E7;stroke-width:0.5;"/><text fill="#FFFFFF" font-family="sans-serif" font-size="14" lengthAdjust="spacing" textLength="175.3828" x="473.3125" y="329.3472">Cr&#233;er comptes employ&#233;s</text></g><!--entity UC1_2--><g class="entity" data-entity="UC1_2" data-source-line="11" data-uid="ent0008" id="entity_UC1_2"><ellipse cx="775.0037" cy="324.7047" fill="#313139" rx="79.7737" ry="18.3547" style="stroke:#E7E7E7;stroke-width:0.5;"/><text fill="#FFFFFF" font-family="sans-serif" font-size="14" lengthAdjust="spacing" textLength="130.1426" x="709.9324" y="329.3532">Attribuer des r&#244;les</text></g><!--entity UC2--><g class="entity" data-entity="UC2" data-source-line="12" data-uid="ent0009" id="entity_UC2"><ellipse cx="1196.9988" cy="194.3758" fill="#313139" rx="116.1788" ry="25.6358" style="stroke:#E7E7E7;stroke-width:0.5;"/><text fill="#FFFFFF" font-family="sans-serif" font-size="14" lengthAdjust="spacing" textLength="211.1826" x="1091.4075" y="199.0242">G&#233;rer les types de documents</text></g><!--entity UC3--><g class="entity" data-entity="UC3" data-source-line="13" data-uid="ent0010" id="entity_UC3"><ellipse cx="1481.0035" cy="194.3827" fill="#313139" rx="132.3635" ry="28.8727" style="stroke:#E7E7E7;stroke-width:0.5;"/><text fill="#FFFFFF" font-family="sans-serif" font-size="14" lengthAdjust="spacing" textLength="245.5605" x="1358.2233" y="199.0311">G&#233;rer les &#233;v&#233;nements et annonces</text></g><!--entity UC4--><g class="entity" data-entity="UC4" data-source-line="14" data-uid="ent0011" id="entity_UC4"><ellipse cx="1746.0042" cy="194.3788" fill="#313139" rx="98.0942" ry="22.0188" style="stroke:#E7E7E7;stroke-width:0.5;"/><text fill="#FFFFFF" font-family="sans-serif" font-size="14" lengthAdjust="spacing" textLength="171.8486" x="1660.0799" y="199.0273">G&#233;n&#233;rer des statistiques</text></g><!--entity UC5--><g class="entity" data-entity="UC5" data-source-line="15" data-uid="ent0012" id="entity_UC5"><ellipse cx="1978.9981" cy="194.3796" fill="#313139" rx="100.3981" ry="22.4796" style="stroke:#E7E7E7;stroke-width:0.5;"/><text fill="#FFFFFF" font-family="sans-serif" font-size="14" lengthAdjust="spacing" textLength="176.9346" x="1890.5308" y="199.0281">Superviser les demandes</text></g><!--entity UC6--><g class="entity" data-entity="UC6" data-source-line="18" data-uid="ent0013" id="entity_UC6"><ellipse cx="159.001" cy="194.3842" fill="#313139" rx="135.921" ry="29.5842" style="stroke:#E7E7E7;stroke-width:0.5;"/><text fill="#FFFFFF" font-family="sans-serif" font-size="14" lengthAdjust="spacing" textLength="253.0459" x="32.478" y="199.0326">Traiter les demandes de documents</text></g><!--entity UC6_1--><g class="entity" data-entity="UC6_1" data-source-line="19" data-uid="ent0014" id="entity_UC6_1"><ellipse cx="334.9991" cy="324.7038" fill="#313139" rx="90.9191" ry="20.5838" style="stroke:#E7E7E7;stroke-width:0.5;"/><text fill="#FFFFFF" font-family="sans-serif" font-size="14" lengthAdjust="spacing" textLength="155.8184" x="257.0899" y="329.3523">Valider les documents</text></g><!--entity UC6_2--><g class="entity" data-entity="UC6_2" data-source-line="20" data-uid="ent0015" id="entity_UC6_2"><ellipse cx="115.9999" cy="324.704" fill="#313139" rx="92.9699" ry="20.994" style="stroke:#E7E7E7;stroke-width:0.5;"/><text fill="#FFFFFF" font-family="sans-serif" font-size="14" lengthAdjust="spacing" textLength="160.4326" x="35.7836" y="329.3524">Refuser les documents</text></g><!--entity UC7--><g class="entity" data-entity="UC7" data-source-line="21" data-uid="ent0016" id="entity_UC7"><ellipse cx="661.003" cy="194.3846" fill="#313139" rx="122.373" ry="26.8746" style="stroke:#E7E7E7;stroke-width:0.5;"/><text fill="#FFFFFF" font-family="sans-serif" font-size="14" lengthAdjust="spacing" textLength="224.4102" x="548.7979" y="199.033">Communiquer avec les citoyens</text></g><!--entity UC8--><g class="entity" data-entity="UC8" data-source-line="22" data-uid="ent0017" id="entity_UC8"><ellipse cx="931.9964" cy="194.3793" fill="#313139" rx="113.5464" ry="25.1093" style="stroke:#E7E7E7;stroke-width:0.5;"/><text fill="#FFFFFF" font-family="sans-serif" font-size="14" lengthAdjust="spacing" textLength="205.5293" x="829.2317" y="199.0277">G&#233;rer les &#233;v&#233;nements locaux</text></g><!--entity UC9--><g class="entity" data-entity="UC9" data-source-line="25" data-uid="ent0018" id="entity_UC9"><ellipse cx="3644.0009" cy="194.3822" fill="#313139" rx="99.9109" ry="22.3822" style="stroke:#E7E7E7;stroke-width:0.5;"/><text fill="#FFFFFF" font-family="sans-serif" font-size="14" lengthAdjust="spacing" textLength="175.8613" x="3556.0703" y="199.0306">S'inscrire &#224; la plateforme</text></g><!--entity UC10--><g class="entity" data-entity="UC10" data-source-line="26" data-uid="ent0019" id="entity_UC10"><ellipse cx="2178.9965" cy="194.3793" fill="#313139" rx="64.4965" ry="15.2993" style="stroke:#E7E7E7;stroke-width:0.5;"/><text fill="#FFFFFF" font-family="sans-serif" font-size="14" lengthAdjust="spacing" textLength="92.1279" x="2132.9325" y="199.0277">Se connecter</text></g><!--entity UC11--><g class="entity" data-entity="UC11" data-source-line="27" data-uid="ent0020" id="entity_UC11"><ellipse cx="2931.0007" cy="194.3841" fill="#313139" rx="97.7207" ry="21.9441" style="stroke:#E7E7E7;stroke-width:0.5;"/><text fill="#FFFFFF" font-family="sans-serif" font-size="14" lengthAdjust="spacing" textLength="171.0215" x="2845.49" y="199.0326">Demander un document</text></g><!--entity UC11_1--><g class="entity" data-entity="UC11_1" data-source-line="28" data-uid="ent0021" id="entity_UC11_1"><ellipse cx="2808.9969" cy="324.6994" fill="#313139" rx="101.1469" ry="22.6294" style="stroke:#E7E7E7;stroke-width:0.5;"/><text fill="#FFFFFF" font-family="sans-serif" font-size="14" lengthAdjust="spacing" textLength="178.582" x="2719.7059" y="329.3478">Sp&#233;cifier type et quantit&#233;</text></g><!--entity UC11_2--><g class="entity" data-entity="UC11_2" data-source-line="29" data-uid="ent0022" id="entity_UC11_2"><ellipse cx="3052.0038" cy="324.6988" fill="#313139" rx="106.6938" ry="23.7388" style="stroke:#E7E7E7;stroke-width:0.5;"/><text fill="#FFFFFF" font-family="sans-serif" font-size="14" lengthAdjust="spacing" textLength="190.709" x="2956.6493" y="329.3472">Joindre pi&#232;ces justificatives</text></g><!--entity UC12--><g class="entity" data-entity="UC12" data-source-line="30" data-uid="ent0023" id="entity_UC12"><ellipse cx="2385.9986" cy="194.3837" fill="#313139" rx="107.1686" ry="23.8337" style="stroke:#E7E7E7;stroke-width:0.5;"/><text fill="#FFFFFF" font-family="sans-serif" font-size="14" lengthAdjust="spacing" textLength="191.7412" x="2290.128" y="199.0322">Suivre l'&#233;tat des demandes</text></g><!--entity UC13--><g class="entity" data-entity="UC13" data-source-line="31" data-uid="ent0024" id="entity_UC13"><ellipse cx="2663.0033" cy="194.3787" fill="#313139" rx="134.8933" ry="29.3787" style="stroke:#E7E7E7;stroke-width:0.5;"/><text fill="#FFFFFF" font-family="sans-serif" font-size="14" lengthAdjust="spacing" textLength="250.8857" x="2537.5604" y="199.0271">Communiquer avec l'administration</text></g><!--entity UC14--><g class="entity" data-entity="UC14" data-source-line="32" data-uid="ent0025" id="entity_UC14"><ellipse cx="3166.9981" cy="194.3776" fill="#313139" rx="103.0381" ry="23.0076" style="stroke:#E7E7E7;stroke-width:0.5;"/><text fill="#FFFFFF" font-family="sans-serif" font-size="14" lengthAdjust="spacing" textLength="182.7314" x="3075.6324" y="199.0261">Consulter les &#233;v&#233;nements</text></g><!--entity UC15--><g class="entity" data-entity="UC15" data-source-line="33" data-uid="ent0026" id="entity_UC15"><ellipse cx="3406.9966" cy="194.3773" fill="#313139" rx="102.1866" ry="22.8373" style="stroke:#E7E7E7;stroke-width:0.5;"/><text fill="#FFFFFF" font-family="sans-serif" font-size="14" lengthAdjust="spacing" textLength="180.8652" x="3316.564" y="199.0258">Recevoir des notifications</text></g><!--entity Auth--><g class="entity" data-entity="Auth" data-source-line="63" data-uid="ent0048" id="entity_Auth"><ellipse cx="1480.9986" cy="324.6957" fill="#313139" rx="65.4286" ry="15.4857" style="stroke:#E7E7E7;stroke-width:0.5;"/><text fill="#FFFFFF" font-family="sans-serif" font-size="14" lengthAdjust="spacing" textLength="94.6025" x="1433.6974" y="329.3442">S'authentifier</text></g><!--entity Admin--><g class="entity" data-entity="Admin" data-source-line="3" data-uid="ent0002" id="entity_Admin"><ellipse cx="1481.0018" cy="22" fill="#313139" rx="16" ry="16" style="stroke:#E7E7E7;stroke-width:0.5;"/><path d="M1481.0018,42 C1485.0018,42 1488.0018,42 1492.0018,38 C1500.0018,38 1508.0018,46 1508.0018,54 L1508.0018,58 C1508.0018,62 1504.0018,66 1500.0018,66 L1462.0018,66 C1458.0018,66 1454.0018,62 1454.0018,58 L1454.0018,54 C1454.0018,46 1462.0018,38 1470.0018,38 C1474.0018,42 1477.0018,42 1481.0018,42" fill="#313139" style="stroke:#E7E7E7;stroke-width:0.5;"/><text fill="#FFFFFF" font-family="sans-serif" font-size="14" lengthAdjust="spacing" textLength="104.6035" x="1428.7" y="79.4951">Administrateur</text></g><!--entity Employee--><g class="entity" data-entity="Employee" data-source-line="4" data-uid="ent0003" id="entity_Employee"><ellipse cx="661.0018" cy="22" fill="#313139" rx="16" ry="16" style="stroke:#E7E7E7;stroke-width:0.5;"/><path d="M661.0018,42 C665.0018,42 668.0018,42 672.0018,38 C680.0018,38 688.0018,46 688.0018,54 L688.0018,58 C688.0018,62 684.0018,66 680.0018,66 L642.0018,66 C638.0018,66 634.0018,62 634.0018,58 L634.0018,54 C634.0018,46 642.0018,38 650.0018,38 C654.0018,42 657.0018,42 661.0018,42" fill="#313139" style="stroke:#E7E7E7;stroke-width:0.5;"/><text fill="#FFFFFF" font-family="sans-serif" font-size="14" lengthAdjust="spacing" textLength="60.7236" x="630.64" y="79.4951">Employ&#233;</text></g><!--entity Citizen--><g class="entity" data-entity="Citizen" data-source-line="5" data-uid="ent0004" id="entity_Citizen"><ellipse cx="2931" cy="22" fill="#313139" rx="16" ry="16" style="stroke:#E7E7E7;stroke-width:0.5;"/><path d="M2931,42 C2935,42 2938,42 2942,38 C2950,38 2958,46 2958,54 L2958,58 C2958,62 2954,66 2950,66 L2912,66 C2908,66 2904,62 2904,58 L2904,54 C2904,46 2912,38 2920,38 C2924,42 2927,42 2931,42" fill="#313139" style="stroke:#E7E7E7;stroke-width:0.5;"/><text fill="#FFFFFF" font-family="sans-serif" font-size="14" lengthAdjust="spacing" textLength="53.4912" x="2904.2544" y="79.4951">Citoyen</text></g><!--reverse link UC1 to UC1_1--><g class="link" data-entity-1="UC1" data-entity-2="UC1_1" data-source-line="36" data-uid="lnk27" id="link_UC1_UC1_1"><path d="M423.2966,220.351 C428.1566,237.051 435.62,255.21 451,270.96 C465.87,286.2 486.01,297.6 505,305.83" fill="none" id="UC1-backto-UC1_1" style="stroke:#E7E7E7;stroke-width:1;stroke-dasharray:7.0,7.0;"/><polygon fill="#E7E7E7" points="421.62,214.59,420.2942,224.3492,423.0171,219.3908,427.9755,222.1138,421.62,214.59" style="stroke:#E7E7E7;stroke-width:1;"/><text fill="#FFFFFF" font-family="sans-serif" font-size="13" lengthAdjust="spacing" textLength="63.0068" x="452" y="267.0269">&#171;include&#187;</text></g><!--reverse link UC1 to UC1_2--><g class="link" data-entity-1="UC1" data-entity-2="UC1_2" data-source-line="37" data-uid="lnk28" id="link_UC1_UC1_2"><path d="M476.7557,211.8494 C492.8457,216.2694 504.74,219.53 521,223.96 C570.3,237.4 584.15,236.01 632,253.96 C672.6,269.19 717.19,291.97 745.6,307.31" fill="none" id="UC1-backto-UC1_2" style="stroke:#E7E7E7;stroke-width:1;stroke-dasharray:7.0,7.0;"/><polygon fill="#E7E7E7" points="470.97,210.26,478.5889,216.5011,475.7914,211.5845,480.7081,208.7869,470.97,210.26" style="stroke:#E7E7E7;stroke-width:1;"/><text fill="#FFFFFF" font-family="sans-serif" font-size="13" lengthAdjust="spacing" textLength="63.0068" x="674" y="267.0269">&#171;include&#187;</text></g><!--reverse link UC6 to UC6_1--><g class="link" data-entity-1="UC6" data-entity-2="UC6_1" data-source-line="38" data-uid="lnk29" id="link_UC6_UC6_1"><path d="M202.0383,226.7547 C235.8083,251.3747 279.31,283.1 308.86,304.64" fill="none" id="UC6-backto-UC6_1" style="stroke:#E7E7E7;stroke-width:1;stroke-dasharray:7.0,7.0;"/><polygon fill="#E7E7E7" points="197.19,223.22,202.106,231.7542,201.2303,226.1656,206.8189,225.2898,197.19,223.22" style="stroke:#E7E7E7;stroke-width:1;"/><text fill="#FFFFFF" font-family="sans-serif" font-size="13" lengthAdjust="spacing" textLength="63.0068" x="259" y="267.0269">&#171;include&#187;</text></g><!--reverse link UC6 to UC6_2--><g class="link" data-entity-1="UC6" data-entity-2="UC6_2" data-source-line="39" data-uid="lnk30" id="link_UC6_UC6_2"><path d="M147.4441,229.8693 C139.3741,253.9593 129.96,282.03 122.81,303.38" fill="none" id="UC6-backto-UC6_2" style="stroke:#E7E7E7;stroke-width:1;stroke-dasharray:7.0,7.0;"/><polygon fill="#E7E7E7" points="149.35,224.18,142.6984,231.4433,147.7618,228.921,150.284,233.9845,149.35,224.18" style="stroke:#E7E7E7;stroke-width:1;"/><text fill="#FFFFFF" font-family="sans-serif" font-size="13" lengthAdjust="spacing" textLength="63.0068" x="140" y="267.0269">&#171;include&#187;</text></g><!--reverse link UC11 to UC11_1--><g class="link" data-entity-1="UC11" data-entity-2="UC11_1" data-source-line="40" data-uid="lnk31" id="link_UC11_UC11_1"><path d="M2906.996,220.6285 C2884.446,244.3485 2851.99,278.49 2829.27,302.38" fill="none" id="UC11-backto-UC11_1" style="stroke:#E7E7E7;stroke-width:1;stroke-dasharray:7.0,7.0;"/><polygon fill="#E7E7E7" points="2911.13,216.28,2902.0299,220.0468,2907.685,219.9038,2907.828,225.5588,2911.13,216.28" style="stroke:#E7E7E7;stroke-width:1;"/><text fill="#FFFFFF" font-family="sans-serif" font-size="13" lengthAdjust="spacing" textLength="63.0068" x="2874" y="267.0269">&#171;include&#187;</text></g><!--reverse link UC11 to UC11_2--><g class="link" data-entity-1="UC11" data-entity-2="UC11_2" data-source-line="41" data-uid="lnk32" id="link_UC11_UC11_2"><path d="M2954.8262,220.6454 C2976.7962,243.9454 3008.07,277.11 3030.67,301.08" fill="none" id="UC11-backto-UC11_2" style="stroke:#E7E7E7;stroke-width:1;stroke-dasharray:7.0,7.0;"/><polygon fill="#E7E7E7" points="2950.71,216.28,2953.9741,225.5723,2954.1402,219.9178,2959.7946,220.084,2950.71,216.28" style="stroke:#E7E7E7;stroke-width:1;"/><text fill="#FFFFFF" font-family="sans-serif" font-size="13" lengthAdjust="spacing" textLength="63.0068" x="2999" y="267.0269">&#171;include&#187;</text></g><!--link Admin to UC1--><g class="link" data-entity-1="Admin" data-entity-2="UC1" data-source-line="44" data-uid="lnk33" id="link_Admin_UC1"><path d="M1428.35,45.78 C1253.03,48.45 690.47,61.61 521,121.79 C488.57,133.31 461.3353,153.7018 441.6153,170.7818" fill="none" id="Admin-to-UC1" style="stroke:#E7E7E7;stroke-width:1;"/><polygon fill="#E7E7E7" points="437.08,174.71,446.5018,171.8413,440.8595,171.4365,441.2642,165.7942,437.08,174.71" style="stroke:#E7E7E7;stroke-width:1;"/></g><!--link Admin to UC2--><g class="link" data-entity-1="Admin" data-entity-2="UC2" data-source-line="45" data-uid="lnk34" id="link_Admin_UC2"><path d="M1428.47,71.69 C1399.63,86.34 1363.27,104.93 1331,121.79 C1300.49,137.73 1271.5548,153.1891 1245.3248,167.2891" fill="none" id="Admin-to-UC2" style="stroke:#E7E7E7;stroke-width:1;"/><polygon fill="#E7E7E7" points="1240.04,170.13,1249.8612,169.3919,1244.444,167.7626,1246.0733,162.3455,1240.04,170.13" style="stroke:#E7E7E7;stroke-width:1;"/></g><!--link Admin to UC3--><g class="link" data-entity-1="Admin" data-entity-2="UC3" data-source-line="46" data-uid="lnk35" id="link_Admin_UC3"><path d="M1481,82.93 C1481,108.5 1481,135.72 1481,159.02" fill="none" id="Admin-to-UC3" style="stroke:#E7E7E7;stroke-width:1;"/><polygon fill="#E7E7E7" points="1481,165.02,1485,156.02,1481,160.02,1477,156.02,1481,165.02" style="stroke:#E7E7E7;stroke-width:1;"/></g><!--link Admin to UC4--><g class="link" data-entity-1="Admin" data-entity-2="UC4" data-source-line="47" data-uid="lnk36" id="link_Admin_UC4"><path d="M1533.64,70.68 C1562.67,85.11 1599.18,103.8 1631,121.79 C1660.07,138.23 1687.2245,155.213 1710.1445,169.963" fill="none" id="Admin-to-UC4" style="stroke:#E7E7E7;stroke-width:1;"/><polygon fill="#E7E7E7" points="1715.19,173.21,1709.7864,164.9758,1710.9854,170.5042,1705.4571,171.7032,1715.19,173.21" style="stroke:#E7E7E7;stroke-width:1;"/></g><!--link Admin to UC5--><g class="link" data-entity-1="Admin" data-entity-2="UC5" data-source-line="48" data-uid="lnk37" id="link_Admin_UC5"><path d="M1533.79,49.88 C1608.88,57.9 1749.88,77.82 1862,121.79 C1894.59,134.58 1923.4344,152.8111 1946.2544,168.9811" fill="none" id="Admin-to-UC5" style="stroke:#E7E7E7;stroke-width:1;"/><polygon fill="#E7E7E7" points="1951.15,172.45,1946.1193,163.9829,1947.0704,169.5592,1941.494,170.5103,1951.15,172.45" style="stroke:#E7E7E7;stroke-width:1;"/></g><!--link Employee to UC6--><g class="link" data-entity-1="Employee" data-entity-2="UC6" data-source-line="50" data-uid="lnk38" id="link_Employee_UC6"><path d="M630.61,49.55 C569.38,58.91 427.28,83.16 313,121.79 C277.39,133.83 244.41,148.9337 214.89,163.7837" fill="none" id="Employee-to-UC6" style="stroke:#E7E7E7;stroke-width:1;"/><polygon fill="#E7E7E7" points="209.53,166.48,219.3676,166.0088,213.9967,164.233,215.7725,158.8621,209.53,166.48" style="stroke:#E7E7E7;stroke-width:1;"/></g><!--link Employee to UC7--><g class="link" data-entity-1="Employee" data-entity-2="UC7" data-source-line="51" data-uid="lnk39" id="link_Employee_UC7"><path d="M661,82.93 C661,109.35 661,137.95 661,161.33" fill="none" id="Employee-to-UC7" style="stroke:#E7E7E7;stroke-width:1;"/><polygon fill="#E7E7E7" points="661,167.33,665,158.33,661,162.33,657,158.33,661,167.33" style="stroke:#E7E7E7;stroke-width:1;"/></g><!--link Employee to UC8--><g class="link" data-entity-1="Employee" data-entity-2="UC8" data-source-line="52" data-uid="lnk40" id="link_Employee_UC8"><path d="M691.82,62.01 C740.66,88.72 830.5959,137.9108 885.3359,167.8508" fill="none" id="Employee-to-UC8" style="stroke:#E7E7E7;stroke-width:1;"/><polygon fill="#E7E7E7" points="890.6,170.73,884.6234,162.9019,886.2133,168.3307,880.7845,169.9206,890.6,170.73" style="stroke:#E7E7E7;stroke-width:1;"/></g><!--link Citizen to UC9--><g class="link" data-entity-1="Citizen" data-entity-2="UC9" data-source-line="54" data-uid="lnk41" id="link_Citizen_UC9"><path d="M2958.97,44.65 C3045.91,43.97 3318.14,48.27 3527,121.79 C3560.47,133.58 3589.7668,152.3483 3612.4668,168.9483" fill="none" id="Citizen-to-UC9" style="stroke:#E7E7E7;stroke-width:1;"/><polygon fill="#E7E7E7" points="3617.31,172.49,3612.4064,163.9487,3613.274,169.5386,3607.6841,170.4062,3617.31,172.49" style="stroke:#E7E7E7;stroke-width:1;"/></g><!--link Citizen to UC10--><g class="link" data-entity-1="Citizen" data-entity-2="UC10" data-source-line="55" data-uid="lnk42" id="link_Citizen_UC10"><path d="M2903.11,46.14 C2791.75,50.43 2379.21,69.6 2261,121.79 C2231.61,134.77 2208.9996,157.5287 2194.4996,174.4087" fill="none" id="Citizen-to-UC10" style="stroke:#E7E7E7;stroke-width:1;"/><polygon fill="#E7E7E7" points="2190.59,178.96,2199.4887,174.7394,2193.848,175.1672,2193.4202,169.5266,2190.59,178.96" style="stroke:#E7E7E7;stroke-width:1;"/></g><!--link Citizen to UC11--><g class="link" data-entity-1="Citizen" data-entity-2="UC11" data-source-line="56" data-uid="lnk43" id="link_Citizen_UC11"><path d="M2931,82.93 C2931,111.24 2931,142.94 2931,166.16" fill="none" id="Citizen-to-UC11" style="stroke:#E7E7E7;stroke-width:1;"/><polygon fill="#E7E7E7" points="2931,172.16,2935,163.16,2931,167.16,2927,163.16,2931,172.16" style="stroke:#E7E7E7;stroke-width:1;"/></g><!--link Citizen to UC12--><g class="link" data-entity-1="Citizen" data-entity-2="UC12" data-source-line="57" data-uid="lnk44" id="link_Citizen_UC12"><path d="M2903.13,46.96 C2834.51,52.13 2652.68,70.03 2511,121.79 C2477.29,134.11 2447.1118,151.8112 2422.6818,167.8912" fill="none" id="Citizen-to-UC12" style="stroke:#E7E7E7;stroke-width:1;"/><polygon fill="#E7E7E7" points="2417.67,171.19,2427.3869,169.583,2421.8465,168.441,2422.9885,162.9006,2417.67,171.19" style="stroke:#E7E7E7;stroke-width:1;"/></g><!--link Citizen to UC13--><g class="link" data-entity-1="Citizen" data-entity-2="UC13" data-source-line="58" data-uid="lnk45" id="link_Citizen_UC13"><path d="M2903.08,60.59 C2857.63,85.73 2772.3705,132.8862 2716.3905,163.8462" fill="none" id="Citizen-to-UC13" style="stroke:#E7E7E7;stroke-width:1;"/><polygon fill="#E7E7E7" points="2711.14,166.75,2720.9516,165.8946,2715.5154,164.3302,2717.0799,158.8939,2711.14,166.75" style="stroke:#E7E7E7;stroke-width:1;"/></g><!--link Citizen to UC14--><g class="link" data-entity-1="Citizen" data-entity-2="UC14" data-source-line="59" data-uid="lnk46" id="link_Citizen_UC14"><path d="M2959,62.73 C3002.59,90.11 3081.4387,139.6393 3128.2587,169.0393" fill="none" id="Citizen-to-UC14" style="stroke:#E7E7E7;stroke-width:1;"/><polygon fill="#E7E7E7" points="3133.34,172.23,3127.8452,164.0564,3129.1056,169.5711,3123.5909,170.8314,3133.34,172.23" style="stroke:#E7E7E7;stroke-width:1;"/></g><!--link Citizen to UC15--><g class="link" data-entity-1="Citizen" data-entity-2="UC15" data-source-line="60" data-uid="lnk47" id="link_Citizen_UC15"><path d="M2958.77,47.95 C3020.04,54.82 3170.69,75.41 3288,121.79 C3320.73,134.74 3349.9026,152.7909 3373.1626,168.8509" fill="none" id="Citizen-to-UC15" style="stroke:#E7E7E7;stroke-width:1;"/><polygon fill="#E7E7E7" points="3378.1,172.26,3372.9666,163.8548,3373.9855,169.4191,3368.4211,170.438,3378.1,172.26" style="stroke:#E7E7E7;stroke-width:1;"/></g><!--link UC1 to Auth--><g class="link" data-entity-1="UC1" data-entity-2="Auth" data-source-line="64" data-uid="lnk49" id="link_UC1_Auth"><path d="M467.42,210.86 C484.32,215.62 503.36,220.5 521,223.96 C607.31,240.89 826.54,261.67 914,270.96 C1098.33,290.55 1310.8318,309.2293 1414.5518,318.0893" fill="none" id="UC1-to-Auth" style="stroke:#E7E7E7;stroke-width:1;stroke-dasharray:7.0,7.0;"/><polygon fill="#E7E7E7" points="1420.53,318.6,1411.9031,313.8485,1415.5481,318.1744,1411.2222,321.8195,1420.53,318.6" style="stroke:#E7E7E7;stroke-width:1;"/><text fill="#FFFFFF" font-family="sans-serif" font-size="13" lengthAdjust="spacing" textLength="63.0068" x="915" y="267.0269">&#171;include&#187;</text></g><!--link UC2 to Auth--><g class="link" data-entity-1="UC2" data-entity-2="Auth" data-source-line="65" data-uid="lnk50" id="link_UC2_Auth"><path d="M1246.79,217.88 C1306.13,244.69 1397.8423,286.1294 1446.2423,307.9994" fill="none" id="UC2-to-Auth" style="stroke:#E7E7E7;stroke-width:1;stroke-dasharray:7.0,7.0;"/><polygon fill="#E7E7E7" points="1451.71,310.47,1445.1555,303.1189,1447.1536,308.4111,1441.8613,310.4092,1451.71,310.47" style="stroke:#E7E7E7;stroke-width:1;"/><text fill="#FFFFFF" font-family="sans-serif" font-size="13" lengthAdjust="spacing" textLength="63.0068" x="1357" y="267.0269">&#171;include&#187;</text></g><!--link UC3 to Auth--><g class="link" data-entity-1="UC3" data-entity-2="Auth" data-source-line="66" data-uid="lnk51" id="link_UC3_Auth"><path d="M1481,223.54 C1481,249.8 1481,281.97 1481,302.79" fill="none" id="UC3-to-Auth" style="stroke:#E7E7E7;stroke-width:1;stroke-dasharray:7.0,7.0;"/><polygon fill="#E7E7E7" points="1481,308.79,1485,299.79,1481,303.79,1477,299.79,1481,308.79" style="stroke:#E7E7E7;stroke-width:1;"/><text fill="#FFFFFF" font-family="sans-serif" font-size="13" lengthAdjust="spacing" textLength="63.0068" x="1482" y="267.0269">&#171;include&#187;</text></g><!--link UC4 to Auth--><g class="link" data-entity-1="UC4" data-entity-2="Auth" data-source-line="67" data-uid="lnk52" id="link_UC4_Auth"><path d="M1705.75,214.87 C1651.31,241.23 1561.0204,284.9554 1514.0304,307.7054" fill="none" id="UC4-to-Auth" style="stroke:#E7E7E7;stroke-width:1;stroke-dasharray:7.0,7.0;"/><polygon fill="#E7E7E7" points="1508.63,310.32,1518.4736,309.9984,1513.1303,308.1412,1514.9875,302.7979,1508.63,310.32" style="stroke:#E7E7E7;stroke-width:1;"/><text fill="#FFFFFF" font-family="sans-serif" font-size="13" lengthAdjust="spacing" textLength="63.0068" x="1622" y="267.0269">&#171;include&#187;</text></g><!--link UC5 to Auth--><g class="link" data-entity-1="UC5" data-entity-2="Auth" data-source-line="68" data-uid="lnk53" id="link_UC5_Auth"><path d="M1916.25,212.34 C1858.56,227.86 1770.61,251.32 1694,270.96 C1635.69,285.91 1574.0496,301.0801 1530.9396,311.5801" fill="none" id="UC5-to-Auth" style="stroke:#E7E7E7;stroke-width:1;stroke-dasharray:7.0,7.0;"/><polygon fill="#E7E7E7" points="1525.11,313,1534.8009,314.7566,1529.968,311.8168,1532.9078,306.9838,1525.11,313" style="stroke:#E7E7E7;stroke-width:1;"/><text fill="#FFFFFF" font-family="sans-serif" font-size="13" lengthAdjust="spacing" textLength="63.0068" x="1757" y="267.0269">&#171;include&#187;</text></g><!--link UC6 to Auth--><g class="link" data-entity-1="UC6" data-entity-2="Auth" data-source-line="69" data-uid="lnk54" id="link_UC6_Auth"><path d="M259.55,214.63 C277.33,217.87 295.7,221.1 313,223.96 C404.72,239.11 430.6,228.5 520,253.96 C538.19,259.14 540.61,266.58 559,270.96 C641.76,290.7 1215.0843,313.7338 1410.6743,321.1138" fill="none" id="UC6-to-Auth" style="stroke:#E7E7E7;stroke-width:1;stroke-dasharray:7.0,7.0;"/><polygon fill="#E7E7E7" points="1416.67,321.34,1407.8272,317.0035,1411.6736,321.1515,1407.5256,324.9978,1416.67,321.34" style="stroke:#E7E7E7;stroke-width:1;"/><text fill="#FFFFFF" font-family="sans-serif" font-size="13" lengthAdjust="spacing" textLength="63.0068" x="560" y="267.0269">&#171;include&#187;</text></g><!--link UC7 to Auth--><g class="link" data-entity-1="UC7" data-entity-2="Auth" data-source-line="70" data-uid="lnk55" id="link_UC7_Auth"><path d="M747.49,213.79 C765.16,217.34 783.65,220.9 801,223.96 C1031.31,264.57 1301.6093,300.6925 1418.4493,315.7625" fill="none" id="UC7-to-Auth" style="stroke:#E7E7E7;stroke-width:1;stroke-dasharray:7.0,7.0;"/><polygon fill="#E7E7E7" points="1424.4,316.53,1415.9856,311.4116,1419.4411,315.8904,1414.9623,319.3459,1424.4,316.53" style="stroke:#E7E7E7;stroke-width:1;"/><text fill="#FFFFFF" font-family="sans-serif" font-size="13" lengthAdjust="spacing" textLength="63.0068" x="1081" y="267.0269">&#171;include&#187;</text></g><!--link UC8 to Auth--><g class="link" data-entity-1="UC8" data-entity-2="Auth" data-source-line="71" data-uid="lnk56" id="link_UC8_Auth"><path d="M1008.62,213.29 C1124.8,240.44 1336.0675,289.8243 1429.9675,311.7743" fill="none" id="UC8-to-Auth" style="stroke:#E7E7E7;stroke-width:1;stroke-dasharray:7.0,7.0;"/><polygon fill="#E7E7E7" points="1435.81,313.14,1427.9567,307.1964,1430.9413,312.0019,1426.1358,314.9864,1435.81,313.14" style="stroke:#E7E7E7;stroke-width:1;"/><text fill="#FFFFFF" font-family="sans-serif" font-size="13" lengthAdjust="spacing" textLength="63.0068" x="1240" y="267.0269">&#171;include&#187;</text></g><!--link UC11 to Auth--><g class="link" data-entity-1="UC11" data-entity-2="Auth" data-source-line="72" data-uid="lnk57" id="link_UC11_Auth"><path d="M2870.53,211.96 C2852.75,216.38 2833.19,220.8 2815,223.96 C2333.07,307.76 1747.1396,321.1144 1552.4496,323.2444" fill="none" id="UC11-to-Auth" style="stroke:#E7E7E7;stroke-width:1;stroke-dasharray:7.0,7.0;"/><polygon fill="#E7E7E7" points="1546.45,323.31,1555.4932,327.2113,1551.4497,323.2553,1555.4057,319.2118,1546.45,323.31" style="stroke:#E7E7E7;stroke-width:1;"/><text fill="#FFFFFF" font-family="sans-serif" font-size="13" lengthAdjust="spacing" textLength="63.0068" x="2599" y="267.0269">&#171;include&#187;</text></g><!--link UC12 to Auth--><g class="link" data-entity-1="UC12" data-entity-2="Auth" data-source-line="73" data-uid="lnk58" id="link_UC12_Auth"><path d="M2315.51,212.76 C2297.79,216.78 2278.75,220.81 2261,223.96 C1993.86,271.47 1677.3516,304.7473 1546.4716,317.5173" fill="none" id="UC12-to-Auth" style="stroke:#E7E7E7;stroke-width:1;stroke-dasharray:7.0,7.0;"/><polygon fill="#E7E7E7" points="1540.5,318.1,1549.8459,321.2071,1545.4764,317.6145,1549.069,313.2449,1540.5,318.1" style="stroke:#E7E7E7;stroke-width:1;"/><text fill="#FFFFFF" font-family="sans-serif" font-size="13" lengthAdjust="spacing" textLength="63.0068" x="2070" y="267.0269">&#171;include&#187;</text></g><!--link UC13 to Auth--><g class="link" data-entity-1="UC13" data-entity-2="Auth" data-source-line="74" data-uid="lnk59" id="link_UC13_Auth"><path d="M2564.62,214.76 C2546.81,218.02 2528.37,221.22 2511,223.96 C2147.19,281.29 1711.5497,310.4088 1550.0197,319.8788" fill="none" id="UC13-to-Auth" style="stroke:#E7E7E7;stroke-width:1;stroke-dasharray:7.0,7.0;"/><polygon fill="#E7E7E7" points="1544.03,320.23,1553.2487,323.6964,1549.0214,319.9374,1552.7805,315.7101,1544.03,320.23" style="stroke:#E7E7E7;stroke-width:1;"/><text fill="#FFFFFF" font-family="sans-serif" font-size="13" lengthAdjust="spacing" textLength="63.0068" x="2287" y="267.0269">&#171;include&#187;</text></g><!--SRC=[ZLNBRjim4BpxAnQ-w1IZiXqdAG83WLi4w35kUorOQjsobKY53pTkqN_fCRht3_HZMKcKh8Uj5WYCxCuCoTqTKkQxa2dJB076hT9RUuWHs0yqAi79fCp1z2vAX1J6QcRHwIam0sMgnjycQQmEULOYLO1OWnjXAPGbHl-BdoWd4utSClc5zffk3yRcpmb2X72FnWebOQEIn4aMunH-JG02s90u2fmLiJ2ifAJAQOY3xj68wmnoPcZT-ppJI1GqKEk8OSfpVDY4RUf6vnbHkKfIItJqvJJSJntsdRLQV7OaY8Yiyx-qHSESdpc2FQJqIoL6Yhi4fQqbvmHvjiypYIKLq0AJKadUxBJeoMIbB4vaB7M8-lZe6lQopTww5FLU6BzHX0cJKKEzd8mtl9vrUyNtcWdRM-vKhQksw2EBHLIB-iHknnzmvynPQgU3bNEAsZMmFV9ImoiBrfAh_sbvh3XpJrvnFTuK16_oJfi38GtNGYFaVo1caCRam9tI2VfLRpfq9Fz9IVS2TUscLst2cwgn6fnicb0JEztQfdd6nKuGjN1TOPv7nwGLrj_GGj1jy3ibP4G7JKN-J1w3RuxyinESYjmVpTrpzzQ9FMdY8C_8SH0DlHJ-OpG1EzvUwcQjMdHLqhZOdXXHJLzshS9nhqHr4wIggr3Dy4Dly0UCgpnDL4WUErFCateL1VXaoImK4f44S3kRLQy0l8RRsv8SuNhTG-Sdq9L7LoUrH_IKDcoMFhDp2-_hUnLIjsXGz1uN3s1H8-yRcGJbImeN5sl_EhRZUIzUzE9bBxwacFxgJu7FheQfgs7gkjBwJuLFtWmovUNefS9XQZvCBOQfvJ3bImZWpjclr41le-uDPnuhBblrMQI4zyLijYx34wERZu6BCN0v1bwEWQiny6eCl1u3mz52mz5AmxEb_du1]--></g></svg>